<svg width="1200" height="800" viewBox="0 0 1200 800" fill="none" xmlns="http://www.w3.org/2000/svg" role="img" aria-label="Warehouse stock illustration">
  <rect width="1200" height="800" rx="24" fill="#F3F6FA"/>
  <g opacity="0.4">
    <circle cx="980" cy="140" r="100" fill="#E8F5E9"/>
    <circle cx="1080" cy="260" r="60" fill="#FFF3E0"/>
    <circle cx="1040" cy="80" r="40" fill="#E3F2FD"/>
  </g>
  <rect x="140" y="220" width="920" height="420" rx="16" fill="#FFFFFF" stroke="#E0E7EF"/>
  <rect x="180" y="260" width="240" height="320" rx="12" fill="#F8FAFD" stroke="#E0E7EF"/>
  <rect x="460" y="260" width="320" height="180" rx="12" fill="#F8FAFD" stroke="#E0E7EF"/>
  <rect x="820" y="260" width="200" height="120" rx="12" fill="#F8FAFD" stroke="#E0E7EF"/>
  <rect x="460" y="470" width="560" height="110" rx="12" fill="#F8FAFD" stroke="#E0E7EF"/>
  <!-- shelves -->
  <g>
    <rect x="200" y="300" width="200" height="20" rx="4" fill="#CFD8DC"/>
    <rect x="200" y="360" width="200" height="20" rx="4" fill="#CFD8DC"/>
    <rect x="200" y="420" width="200" height="20" rx="4" fill="#CFD8DC"/>
    <rect x="200" y="480" width="200" height="20" rx="4" fill="#CFD8DC"/>
  </g>
  <!-- boxes -->
  <g>
    <rect x="220" y="320" width="60" height="36" rx="6" fill="#FFE0B2"/>
    <rect x="288" y="320" width="92" height="36" rx="6" fill="#FFECB3"/>
    <rect x"220" y="380" width="120" height="36" rx="6" fill="#C8E6C9"/>
    <rect x="344" y="380" width="36" height="36" rx="6" fill="#B3E5FC"/>
    <rect x="220" y="440" width="92" height="36" rx="6" fill="#D1C4E9"/>
    <rect x="316" y="440" width="64" height="36" rx="6" fill="#FFCCBC"/>
    <rect x="220" y="500" width="60" height="36" rx="6" fill="#BBDEFB"/>
    <rect x="288" y="500" width="92" height="36" rx="6" fill="#DCEDC8"/>
  </g>
  <!-- charts -->
  <g>
    <rect x="480" y="280" width="140" height="24" rx="6" fill="#E3F2FD"/>
    <rect x="480" y="316" width="260" height="24" rx="6" fill="#FFF3E0"/>
    <rect x="480" y="352" width="200" height="24" rx="6" fill="#E8F5E9"/>
    <rect x="480" y="388" width="110" height="24" rx="6" fill="#FCE4EC"/>
  </g>
  <g>
    <rect x="840" y="280" width="160" height="16" rx="8" fill="#E3F2FD"/>
    <rect x="840" y="310" width="120" height="16" rx="8" fill="#E8F5E9"/>
    <rect x="840" y="340" width="80" height="16" rx="8" fill="#FFF3E0"/>
  </g>
  <g>
    <rect x="480" y="490" width="240" height="20" rx="10" fill="#E0E0E0"/>
    <rect x="480" y="520" width="420" height="20" rx="10" fill="#E0E0E0"/>
    <rect x="480" y="550" width="360" height="20" rx="10" fill="#E0E0E0"/>
  </g>
  <!-- forklift -->
  <g>
    <rect x="740" y="540" width="140" height="40" rx="8" fill="#FFC107"/>
    <circle cx="760" cy="590" r="18" fill="#455A64"/>
    <circle cx="850" cy="590" r="18" fill="#455A64"/>
    <rect x="882" y="520" width="10" height="80" fill="#90A4AE"/>
    <rect x="890" y="520" width="10" height="80" fill="#90A4AE"/>
    <rect x="900" y="560" width="60" height="12" fill="#90A4AE"/>
  </g>
</svg>


